<?xml version="1.0" encoding="UTF-8" standalone="no"?>
<!-- Created with Inkscape (http://www.inkscape.org/) -->

<svg
   version="1.1"
   id="svg1"
   width="600"
   height="400"
   viewBox="0 0 600 400"
   sodipodi:docname="milenio logo sem fundo 2x.svg"
   inkscape:version="1.4.2 (f4327f4, 2025-05-13)"
   inkscape:export-filename="Milênio Logo Final Dourada.png"
   inkscape:export-xdpi="96"
   inkscape:export-ydpi="96"
   xmlns:inkscape="http://www.inkscape.org/namespaces/inkscape"
   xmlns:sodipodi="http://sodipodi.sourceforge.net/DTD/sodipodi-0.dtd"
   xmlns="http://www.w3.org/2000/svg"
   xmlns:svg="http://www.w3.org/2000/svg">
  <defs
     id="defs1">
    <rect
       x="-36.289604"
       y="-86.187813"
       width="730.32831"
       height="514.10272"
       id="rect4" />
  </defs>
  <sodipodi:namedview
     id="namedview1"
     pagecolor="#ffffff"
     bordercolor="#000000"
     borderopacity="0.25"
     inkscape:showpageshadow="2"
     inkscape:pageopacity="0.0"
     inkscape:pagecheckerboard="0"
     inkscape:deskcolor="#d1d1d1"
     showgrid="false"
     inkscape:zoom="0.93528505"
     inkscape:cx="114.40362"
     inkscape:cy="258.21005"
     inkscape:window-width="1920"
     inkscape:window-height="1017"
     inkscape:window-x="-8"
     inkscape:window-y="-8"
     inkscape:window-maximized="1"
     inkscape:current-layer="g1" />
  <g
     inkscape:groupmode="layer"
     inkscape:label="Image"
     id="g1">
    <text
       xml:space="preserve"
       style="font-style:normal;font-variant:normal;font-weight:normal;font-stretch:normal;font-size:24.151px;font-family:Montserrat;-inkscape-font-specification:Montserrat;text-align:start;writing-mode:lr-tb;direction:ltr;text-anchor:start;fill:#e8a840;fill-opacity:1;fill-rule:nonzero;stroke-width:5.57375"
       x="158.99423"
       y="337.22641"
       id="text1"
       transform="scale(0.91840049,1.0888496)"><tspan
         sodipodi:role="line"
         id="tspan1"
         x="158.99423"
         y="337.22641"
         style="stroke-width:5.57375;fill:#e8a840;fill-opacity:1">RESTAURANTE E PIZZARIA</tspan></text>
    <text
       xml:space="preserve"
       style="font-style:normal;font-variant:normal;font-weight:bold;font-stretch:normal;font-size:106.845px;font-family:'Playfair Display';-inkscape-font-specification:'Playfair Display Bold';text-align:start;writing-mode:lr-tb;direction:ltr;text-anchor:start;fill:#e8a840;fill-opacity:1;fill-rule:nonzero;stroke-width:24.6583"
       x="86.466866"
       y="273.65094"
       id="text1-8"
       transform="scale(0.92659093,1.0792249)"><tspan
         sodipodi:role="line"
         id="tspan1-2"
         x="86.466866"
         y="273.65094"
         style="font-style:normal;font-variant:normal;font-weight:bold;font-stretch:normal;font-family:'Playfair Display';-inkscape-font-specification:'Playfair Display Bold';stroke-width:24.6583;fill:#e8a840;fill-opacity:1">MILÊNIO</tspan></text>
    <path
       id="rect1"
       style="fill:#e8a840;stroke-width:3.6926;fill-opacity:1"
       d="m 278.78328,127.9257 13.90354,-10.24962 20.18143,11.44412 28.70358,2.70923 4.34719,41.57992 -90.83878,0.37802 3.96919,-40.63488"
       sodipodi:nodetypes="ccccccc" />
    <path
       id="path1"
       style="fill:#e8a840;stroke-width:6.10846;fill-opacity:1"
       d="m 301.22323,89.26973 c 0,21.40558 -18.42972,38.75823 -41.16392,38.75823 -22.7342,0 -41.16392,-17.35265 -41.16392,-38.75823 0,-21.405582 18.42971,-38.758236 41.16392,-38.758238 22.73421,2e-6 41.16392,17.352656 41.16392,38.758238 z"
       sodipodi:nodetypes="sssss" />
    <path
       id="path1-1"
       style="fill:#e8a840;stroke-width:5.94768;fill-opacity:1"
       d="M 325.09389,64.495427 A 39.025538,38.758238 0 0 1 286.06835,103.25365 39.025538,38.758238 0 0 1 247.04282,64.495427 39.025538,38.758238 0 0 1 286.06835,25.73719 39.025538,38.758238 0 0 1 325.09389,64.495427 Z" />
    <path
       id="path1-8"
       style="fill:#e8a840;stroke-width:6.90822;fill-opacity:1"
       d="M 373.35996,83.266021 A 45.440695,44.906097 0 0 1 327.91927,128.1721 45.440695,44.906097 0 0 1 282.47858,83.266021 45.440695,44.906097 0 0 1 327.91927,38.359924 45.440695,44.906097 0 0 1 373.35996,83.266021 Z" />
    <rect
       style="fill:#e8a840;stroke-width:3.6926;fill-opacity:1"
       id="rect3"
       width="161.4481"
       height="8.5535421"
       x="78.296516"
       y="154.22318" />
    <rect
       style="fill:#e8a840;stroke-width:1.94238;fill-opacity:1"
       id="rect3-28"
       width="102.10791"
       height="3.7421746"
       x="97.283333"
       y="140.65564" />
    <rect
       style="fill:#e8a840;stroke-width:1.94238;fill-opacity:1"
       id="rect3-28-8"
       width="102.10791"
       height="3.7421746"
       x="391.48022"
       y="141.25941" />
    <rect
       style="fill:#e8a840;stroke-width:1.36987;fill-opacity:1"
       id="rect3-28-8-0"
       width="50.786659"
       height="3.7421746"
       x="455.97522"
       y="348.81598" />
    <rect
       style="fill:#e8a840;stroke-width:1.36987;fill-opacity:1"
       id="rect3-28-8-0-8"
       width="50.786659"
       height="3.7421746"
       x="456.2323"
       y="357.8959" />
    <rect
       style="fill:#e8a840;stroke-width:1.36987;fill-opacity:1"
       id="rect3-28-8-0-6"
       width="50.786659"
       height="3.7421746"
       x="85.663094"
       y="349.41672" />
    <rect
       style="fill:#e8a840;stroke-width:1.36987;fill-opacity:1"
       id="rect3-28-8-0-8-0"
       width="50.786659"
       height="3.7421746"
       x="85.920113"
       y="358.49664" />
    <rect
       style="fill:#e8a840;stroke-width:3.6926;fill-opacity:1"
       id="rect3-27"
       width="161.4481"
       height="8.5535421"
       x="353.11664"
       y="155.80632" />
    <rect
       style="fill:#e8a840;stroke-width:6.06887;fill-opacity:1"
       id="rect3-9"
       width="436.09698"
       height="8.5535421"
       x="78.082405"
       y="322.18536" />
    <rect
       style="fill:#e8a840;stroke-width:3.26093;fill-opacity:1"
       id="rect3-6"
       width="125.90837"
       height="8.5534925"
       x="179.6888"
       y="-62.077866"
       transform="matrix(7.3003987e-4,0.99999973,-0.99999799,-0.00200531,0,0)" />
    <rect
       style="fill:#e8a840;stroke-width:3.26093;fill-opacity:1"
       id="rect3-6-1"
       width="125.90837"
       height="8.5534925"
       x="179.1675"
       y="-539.85913"
       transform="matrix(7.3003987e-4,0.99999973,-0.99999799,-0.00200531,0,0)" />
    <path
       id="rect3-2"
       style="fill:#e8a840;stroke-width:2.04188;fill-opacity:1"
       d="m 63.144668,179.41947 c 3.66046,-0.59442 8.51409,-4.50396 11.71034,-10.0565 3.90256,-6.77954 2.75273,-15.26292 2.75273,-15.26292 l 5.4492,0.0832 c 0,0 0.56048,2.96286 0.41363,9.13288 -0.21858,7.6314 -5.27952,13.91664 -5.99706,14.98997 -0.55132,0.82467 -1.69447,1.81471 -2.30703,2.39094 -1.4443,1.35868 -2.92553,2.34515 -5.09658,3.41446 -4.84165,2.38468 -10.80167,2.924 -10.80167,2.924 0,0 -0.86215,-6.84655 -0.0328,-6.98123 z"
       sodipodi:nodetypes="ssccsssscss" />
    <path
       id="rect3-2-1"
       style="fill:#e8a840;stroke-width:2.04188;fill-opacity:1"
       d="m 77.732408,322.44154 c -0.27092,-3.6985 -3.73948,-8.87646 -8.99012,-12.54761 -6.41094,-4.48241 -14.96249,-4.08142 -14.96249,-4.08142 l 0.56104,-5.42088 c 0,0 3.00061,-0.29834 9.13395,0.38936 7.58278,0.88738 13.39967,6.48034 14.4059,7.2893 0.77311,0.62154 1.65902,1.84717 2.17927,2.50792 1.22671,1.55796 2.07939,3.12004 2.95407,5.37655 1.95063,5.03222 1.96488,11.01657 1.96488,11.01657 0,0 -6.8958,0.25805 -6.95718,-0.57991 z"
       sodipodi:nodetypes="ssccsssscss" />
    <path
       id="rect3-2-1-2"
       style="fill:#e8a840;stroke-width:2.04188;fill-opacity:1"
       d="m 530.40241,306.28952 c -3.6935,0.33206 -8.8134,3.88582 -12.3972,9.19648 -4.3757,6.48422 -3.8333,15.02796 -3.8333,15.02796 l -5.4294,-0.47129 c 0,0 -0.348,-2.99526 0.2382,-9.13914 0.7618,-7.59642 6.2577,-13.50505 7.0499,-14.52453 0.6087,-0.78328 1.8195,-1.68934 2.4716,-2.22046 1.5374,-1.25231 3.0852,-2.13071 5.3269,-3.04261 4.9993,-2.03361 10.9826,-2.14685 10.9826,-2.14685 0,0 0.3721,6.89058 -0.4648,6.96582 z"
       sodipodi:nodetypes="ssccsssscss" />
    <path
       id="rect3-2-1-2-9"
       style="fill:#e8a840;stroke-width:2.18742;fill-opacity:1"
       d="m 514.66181,161.51831 c 0.087,4.00583 3.4845,9.78481 8.8548,14.03635 6.5571,5.19107 15.6502,5.23102 15.6502,5.23102 l -0.8897,5.81838 c 0,0 -3.1992,0.15609 -9.668,-0.92496 -7.9955,-1.37664 -13.862,-7.73322 -14.8855,-8.66174 -0.7863,-0.71339 -1.6594,-2.08488 -2.1754,-2.82662 -1.2166,-1.74891 -2.0363,-3.48159 -2.8415,-5.96481 -1.7958,-5.53781 -1.4857,-11.996 -1.4857,-11.996 0,0 7.3289,0.10265 7.3485,1.01028 z"
       sodipodi:nodetypes="ssccsssscss" />
    <path
       id="path3"
       style="fill:#f2f2f2;stroke-width:3.6926;fill-opacity:1"
       d="m 248.48308,109.6855 c -4.54948,2.38654 -12.45456,-4.64936 -15.40366,-13.773697 -2.94911,-9.124334 -0.34413,-16.935972 4.14271,-19.51631 0,0 -0.33333,6.878941 0.14814,12.137774 0.39687,4.334813 2.41984,8.631516 4.48047,12.575643 0.0536,0.10266 2.74088,3.69675 2.80824,3.79097 1.97636,2.76464 3.8241,4.78562 3.8241,4.78562 z"
       sodipodi:nodetypes="cscsssc" />
    <text
       xml:space="preserve"
       id="text3"
       style="font-style:normal;font-variant:normal;font-weight:600;font-stretch:normal;font-size:16px;font-family:Montserrat;-inkscape-font-specification:'Montserrat Semi-Bold';text-align:start;writing-mode:lr-tb;direction:ltr;white-space:pre;shape-inside:url(#rect4);fill:#ffffff;fill-opacity:1;stroke-width:3.6926" />
  </g>
</svg>
